<svg xmlns="http://www.w3.org/2000/svg" viewBox="0 0 139.71 173.61"><defs><style>.a{fill:#e0cb4b;}</style></defs><path class="a" d="M12.31,71.73c0-19.09,15.88-31.23,35.51-31.23a42.24,42.24,0,0,1,15.7,3.22l15-13.92L91,45.86,78,54.78a30.18,30.18,0,0,1,5.18,17.48C83.15,92.07,67.09,104,47.82,104a41.43,41.43,0,0,1-18.2-4.1c-2,2.14-3.21,4.28-3.21,6.07,0,4.63,8.38,7.13,24.44,7.13,18.56,0,40,.36,40,22.66,0,25.34-22.48,32.83-42.82,32.83-17.49,0-43-5.89-43-31a32.9,32.9,0,0,1,1.78-9.28v-.18l10.35-3.93C9.64,118.65,6.6,110.09,6.6,105.09c0-7.13,4.29-13.73,9.28-18.91A28.46,28.46,0,0,1,12.31,71.73ZM72.8,139.35c0-6.6-11.42-6.78-22.66-6.78-5.35,0-13.38-.18-18.2-1.07l-9.28,7.13C23.91,146.31,35.87,149.7,48,149.7,59.06,149.7,72.8,147.74,72.8,139.35ZM48.18,56.56c-9.46,0-14.63,7-14.63,15.52s5.17,15,14.63,15c9.27,0,14.45-6.42,14.45-15S57.45,56.56,48.18,56.56Z"/><path class="a" d="M134.71,128.64h-22.3V104.73h22.3Zm-.53-36.57H113.12V5h21.06Z"/></svg>